# xmcd
#
# Track frame offsets: 
#        150
#        38016
#        66891
#        98176
#        109329
#        122937
#        154183
#        189705
#        206442
#        222313
#
# Disc length: 3338 seconds
#
# Revision: 0
# Processed by: cddbd v1.5.2PL0 Copyright (c) Steve Scherf et al.
# Submitted via: ExactAudioCopy v0.99pb4
#
DISCID=930d080a
DTITLE=Various Artist - Nova 24h - CD 03 - 2h c'est la nuit
DYEAR=2009
DGENRE=Blues
TTITLE0=Sun Palace - Rude Mouvements
TTITLE1=Gary Burton - Las Vegas Tango
TTITLE2=Jan Akkerman - Streetwalker
TTITLE3=Imperial Tiger Orchestra - Aynotche Terabu
TTITLE4=Billie Holiday - Strange Fruit
TTITLE5=Étoile de Dakar - Tolou Badou Ndiaye
TTITLE6=Mahmoud Fadl feat. Salwa Abou Greisha - Hayart Albi Maak
TTITLE7=Albert Marcoeur - Le Paris-Beurre
TTITLE8=Exile - Extra Funk
TTITLE9=Noël Ellis - To Hail Selassie
EXTD=
EXTT0=
EXTT1=
EXTT2=
EXTT3=
EXTT4=
EXTT5=
EXTT6=
EXTT7=
EXTT8=
EXTT9=
PLAYORDER=
